<svg width="280" height="71" viewBox="0 0 280 71" fill="none" xmlns="http://www.w3.org/2000/svg">
<path d="M89.5051 55.8455L92.9911 47.7951C96.7581 50.5904 101.762 52.044 106.71 52.044C110.365 52.044 112.67 50.6463 112.67 48.5219C112.614 42.5959 90.7983 47.2361 90.6296 32.3652C90.5734 24.818 97.3204 19.0038 106.879 19.0038C112.557 19.0038 118.236 20.4014 122.284 23.5881L119.023 31.8062C115.312 29.4581 110.702 27.781 106.316 27.781C103.336 27.781 101.369 29.1786 101.369 30.9676C101.425 36.7818 123.409 33.5951 123.634 47.7951C123.634 55.5101 117.055 60.9329 107.61 60.9329C100.694 60.9329 94.3405 59.3117 89.5051 55.8455ZM223.264 44.8881C221.521 47.9069 218.26 49.9755 214.493 49.9755C208.927 49.9755 204.429 45.503 204.429 39.9684C204.429 34.4337 208.927 29.9613 214.493 29.9613C218.26 29.9613 221.521 32.0298 223.264 35.0487L232.879 29.7377C229.28 23.3644 222.365 19.0038 214.493 19.0038C202.855 19.0038 193.409 28.3959 193.409 39.9684C193.409 51.5408 202.855 60.9329 214.493 60.9329C222.421 60.9329 229.28 56.6282 232.879 50.1991L223.264 44.8881ZM128.469 1.61719H140.501V60.1503H128.469V1.61719ZM237.602 1.61719V60.1503H249.634V42.5959L263.915 60.1503H279.32L261.16 39.2975L277.971 19.8424H263.24L249.634 35.9991V1.61719H237.602ZM176.26 44.9999C174.517 47.851 170.919 49.9755 166.871 49.9755C161.304 49.9755 156.806 45.503 156.806 39.9684C156.806 34.4337 161.304 29.9613 166.871 29.9613C170.919 29.9613 174.517 32.1975 176.26 35.1046V44.9999ZM176.26 19.8424V24.5944C174.292 21.2959 169.401 19.0038 164.284 19.0038C153.714 19.0038 145.393 28.2841 145.393 39.9125C145.393 51.5408 153.714 60.9329 164.284 60.9329C169.401 60.9329 174.292 58.6408 176.26 55.3424V60.0943H188.292V19.8424H176.26Z" fill="black"/>
<path d="M15.1199 44.944C15.1199 49.0251 11.8027 52.3235 7.69824 52.3235C3.59382 52.3235 0.27655 49.0251 0.27655 44.944C0.27655 40.8629 3.59382 37.5645 7.69824 37.5645H15.1199V44.944ZM18.8308 44.944C18.8308 40.8629 22.148 37.5645 26.2525 37.5645C30.3569 37.5645 33.6741 40.8629 33.6741 44.944V63.3928C33.6741 67.4739 30.3569 70.7723 26.2525 70.7723C22.148 70.7723 18.8308 67.4739 18.8308 63.3928V44.944Z" fill="#E01E5A"/>
<path d="M26.2521 15.3142C22.1477 15.3142 18.8304 12.0158 18.8304 7.9347C18.8304 3.8536 22.1477 0.555176 26.2521 0.555176C30.3565 0.555176 33.6738 3.8536 33.6738 7.9347V15.3142H26.2521ZM26.2521 19.0599C30.3565 19.0599 33.6738 22.3583 33.6738 26.4394C33.6738 30.5205 30.3565 33.819 26.2521 33.819H7.64166C3.53724 33.819 0.219971 30.5205 0.219971 26.4394C0.219971 22.3583 3.53724 19.0599 7.64166 19.0599H26.2521Z" fill="#36C5F0"/>
<path d="M55.9951 26.4394C55.9951 22.3583 59.3124 19.0599 63.4168 19.0599C67.5212 19.0599 70.8385 22.3583 70.8385 26.4394C70.8385 30.5205 67.5212 33.819 63.4168 33.819H55.9951V26.4394ZM52.2843 26.4394C52.2843 30.5205 48.967 33.819 44.8626 33.819C40.7582 33.819 37.4409 30.5205 37.4409 26.4394V7.9347C37.4409 3.8536 40.7582 0.555176 44.8626 0.555176C48.967 0.555176 52.2843 3.8536 52.2843 7.9347V26.4394Z" fill="#2EB67D"/>
<path d="M44.8626 56.0133C48.967 56.0133 52.2843 59.3117 52.2843 63.3928C52.2843 67.4739 48.967 70.7723 44.8626 70.7723C40.7582 70.7723 37.4409 67.4739 37.4409 63.3928V56.0133H44.8626ZM44.8626 52.3235C40.7582 52.3235 37.4409 49.0251 37.4409 44.944C37.4409 40.8629 40.7582 37.5645 44.8626 37.5645H63.473C67.5775 37.5645 70.8947 40.8629 70.8947 44.944C70.8947 49.0251 67.5775 52.3235 63.473 52.3235H44.8626Z" fill="#ECB22E"/>
</svg>
